<?xml version="1.0" encoding="UTF-8"?>
<svg width="512pt" height="512pt" version="1.1" viewBox="0 0 512 512" xmlns="http://www.w3.org/2000/svg">
 <g fill="#fff">
  <path d="m254.81 428.77c-95.258 0-172.76-77.5-172.76-172.77 0-95.262 77.5-172.77 172.76-172.77s172.76 77.504 172.76 172.77-77.496 172.77-172.76 172.77zm0-325.05c-83.969 0-152.28 68.316-152.28 152.29s68.312 152.29 152.28 152.29c83.969 0 152.28-68.316 152.28-152.29s-68.309-152.29-152.28-152.29z"/>
  <path d="m415.86 245.76h70.543v20.48h-70.543z"/>
  <path d="m25.602 245.76h65.504v20.48h-65.504z"/>
  <path d="m243.38 418.52h20.48v67.875h-20.48z"/>
  <path d="m243.38 25.602h20.48v67.875h-20.48z"/>
  <path d="m353.34 256c0 54.418-44.113 98.527-98.527 98.527-54.418 0-98.531-44.109-98.531-98.527s44.113-98.527 98.531-98.527c54.414 0 98.527 44.109 98.527 98.527"/>
 </g>
</svg>
